<svg width="28" height="28" viewBox="0 0 28 28" fill="none" xmlns="http://www.w3.org/2000/svg">
<path d="M14 25.9999C13.9 25.9999 13.9 25.9999 13.8 25.9999C13.7 25.9999 4 23.6999 4 12.9999V6.9999C4 6.5999 4.2 6.1999 4.6 6.0999L13.6 2.0999C13.9 1.9999 14.2 1.9999 14.4 2.0999L23.4 6.0999C23.8 6.1999 24 6.5999 24 6.9999V12.9999C24 23.6999 14.3 25.9999 14.2 25.9999C14.1 25.9999 14.1 25.9999 14 25.9999ZM14 14.9999C11.1 14.9999 9 16.2999 9 17.9999C9 19.6999 11.1 20.9999 14 20.9999C16.9 20.9999 19 19.6999 19 17.9999C19 16.2999 16.9 14.9999 14 14.9999ZM14 6.9999C12.3 6.9999 11 8.2999 11 9.9999C11 11.6999 12.3 12.9999 14 12.9999C15.7 12.9999 17 11.6999 17 9.9999C17 8.2999 15.7 6.9999 14 6.9999Z" fill="black"/>
</svg>
