<svg width="24" height="24" viewBox="0 0 24 24" fill="none" xmlns="http://www.w3.org/2000/svg">
<path d="M17.75 3C18.612 3 19.4386 3.34241 20.0481 3.9519C20.6576 4.5614 21 5.38805 21 6.25V12.999L16.251 13L16.038 13.007C15.464 13.0448 14.9102 13.2344 14.4334 13.5562C13.9566 13.8781 13.5738 14.3208 13.324 14.839C12.904 14.9523 12.463 15.009 12.001 15.009C10.9917 15.0196 10.0043 14.7144 9.177 14.136C9.0961 14.0784 9.00456 14.0374 8.90769 14.0154C8.81083 13.9934 8.71056 13.9909 8.61271 14.008C8.51487 14.0251 8.4214 14.0615 8.33772 14.115C8.25404 14.1685 8.18183 14.2381 8.12528 14.3198C8.06872 14.4015 8.02895 14.4935 8.00827 14.5907C7.98759 14.6878 7.98641 14.7881 8.0048 14.8857C8.0232 14.9833 8.0608 15.0763 8.11542 15.1593C8.17005 15.2422 8.2406 15.3135 8.323 15.369C9.40116 16.1211 10.6865 16.5195 12.001 16.509C12.2277 16.509 12.4513 16.4983 12.672 16.477L13.001 16.437L13 21H6.25C5.38805 21 4.5614 20.6576 3.9519 20.0481C3.34241 19.4386 3 18.612 3 17.75V6.25C3 5.38805 3.34241 4.5614 3.9519 3.9519C4.5614 3.34241 5.38805 3 6.25 3H17.75ZM20.341 14.72L14.72 20.34C14.652 20.4089 14.5792 20.4727 14.502 20.531L14.5 16.25L14.506 16.107C14.5399 15.6952 14.7184 15.3086 15.01 15.0157C15.3015 14.7229 15.6873 14.5427 16.099 14.507L16.25 14.5H20.532C20.4727 14.5767 20.4097 14.65 20.341 14.72ZM9.001 7.75C8.83394 7.74527 8.66763 7.7741 8.5119 7.83476C8.35617 7.89543 8.21419 7.98671 8.09435 8.1032C7.97452 8.2197 7.87926 8.35904 7.81421 8.51299C7.74916 8.66694 7.71565 8.83237 7.71565 8.9995C7.71565 9.16663 7.74916 9.33206 7.81421 9.48601C7.87926 9.63996 7.97452 9.7793 8.09435 9.89579C8.21419 10.0123 8.35617 10.1036 8.5119 10.1642C8.66763 10.2249 8.83394 10.2537 9.001 10.249C9.32627 10.2397 9.63507 10.1039 9.86179 9.87045C10.0885 9.63704 10.2153 9.32441 10.2152 8.99901C10.215 8.67361 10.088 8.36109 9.8611 8.12786C9.63419 7.89463 9.32527 7.75907 9 7.75M15 7.75C14.8329 7.74527 14.6666 7.7741 14.5109 7.83476C14.3552 7.89543 14.2132 7.98671 14.0934 8.1032C13.9735 8.2197 13.8783 8.35904 13.8132 8.51299C13.7482 8.66694 13.7146 8.83237 13.7146 8.9995C13.7146 9.16663 13.7482 9.33206 13.8132 9.48601C13.8783 9.63996 13.9735 9.7793 14.0934 9.89579C14.2132 10.0123 14.3552 10.1036 14.5109 10.1642C14.6666 10.2249 14.8329 10.2537 15 10.249C15.3253 10.2398 15.6341 10.1041 15.8609 9.8708C16.0878 9.63747 16.2146 9.3249 16.2146 8.9995C16.2146 8.6741 16.0878 8.36153 15.8609 8.12821C15.6341 7.89488 15.3253 7.7592 15 7.75Z" fill="#124984"/>
</svg>
